<svg viewBox="0 0 38 38" fill="none" xmlns="http://www.w3.org/2000/svg">
    <path d="M17.4876 1.74775C18.2852 0.826024 19.7148 0.826025 20.5124 1.74775L23.6662 5.39237C24.0791 5.8696 24.6931 6.12392 25.3226 6.07847L30.1298 5.7314C31.3455 5.64363 32.3564 6.65449 32.2686 7.87023L31.9215 12.6774C31.8761 13.3069 32.1304 13.9209 32.6076 14.3338L36.2522 17.4876C37.174 18.2852 37.174 19.7148 36.2522 20.5124L32.6076 23.6662C32.1304 24.0791 31.8761 24.6931 31.9215 25.3226L32.2686 30.1298C32.3564 31.3455 31.3455 32.3564 30.1298 32.2686L25.3226 31.9215C24.6931 31.8761 24.0791 32.1304 23.6662 32.6076L20.5124 36.2522C19.7148 37.174 18.2852 37.174 17.4876 36.2522L14.3338 32.6076C13.9209 32.1304 13.3069 31.8761 12.6774 31.9215L7.87023 32.2686C6.65449 32.3564 5.64363 31.3455 5.7314 30.1298L6.07847 25.3226C6.12392 24.6931 5.8696 24.0791 5.39237 23.6662L1.74775 20.5124C0.826024 19.7148 0.826025 18.2852 1.74775 17.4876L5.39237 14.3338C5.8696 13.9209 6.12392 13.3069 6.07847 12.6774L5.7314 7.87023C5.64363 6.65449 6.65449 5.64363 7.87023 5.7314L12.6774 6.07847C13.3069 6.12392 13.9209 5.8696 14.3338 5.39237L17.4876 1.74775Z"
          fill="#0088cc"/>
    <path fill-rule="evenodd" clip-rule="evenodd"
          d="M26.7188 14.2843C27.0937 14.6633 27.0937 15.2779 26.7188 15.6569L17.7588 24.7157C17.3839 25.0948 16.7761 25.0948 16.4012 24.7157L11.2812 19.5392C10.9063 19.1602 10.9063 18.5457 11.2812 18.1667C11.6561 17.7876 12.2639 17.7876 12.6388 18.1667L17.08 22.6568L25.3612 14.2843C25.7362 13.9052 26.3439 13.9052 26.7188 14.2843Z"
          fill="white"/>
</svg>
