<svg viewBox="0 0 40 40" fill="none" xmlns="http://www.w3.org/2000/svg">
    <circle cx="20" cy="20" r="20" fill="url(#paint0_radial_194_727)"/>
    <path d="M25.8066 13.7018L18.1604 21.5033L14.1967 17.4625C13.7834 17.041 13.2228 16.8042 12.6384 16.8042C12.0539 16.8042 11.4934 17.041 11.08 17.4625C10.6669 17.8843 10.4348 18.4562 10.4348 19.0525C10.4348 19.6489 10.6669 20.2208 11.08 20.6426L16.6406 26.3161C17.0429 26.7262 17.5884 26.9565 18.1571 26.9565C18.7258 26.9565 19.2712 26.7262 19.6736 26.3161L28.92 16.8818C29.3331 16.4601 29.5652 15.8881 29.5652 15.2918C29.5652 14.6955 29.3331 14.1236 28.92 13.7018C28.7156 13.4931 28.473 13.3275 28.2058 13.2146C27.9387 13.1016 27.6524 13.0435 27.3633 13.0435C27.0742 13.0435 26.7878 13.1016 26.5207 13.2146C26.2536 13.3275 26.011 13.4931 25.8066 13.7018Z" fill="white"/>
    <defs>
        <radialGradient id="paint0_radial_194_727" cx="0" cy="0" r="1" gradientUnits="userSpaceOnUse" gradientTransform="translate(20 20) scale(20)">
            <stop stop-color="#0BCD63"/>
            <stop offset="1" stop-color="#009F48"/>
        </radialGradient>
    </defs>
</svg>


